<svg xmlns="http://www.w3.org/2000/svg" viewBox="0 0 320 240" shape-rendering="crispEdges">
  <!-- 배경 카드 -->
  <rect width="320" height="240" fill="#ebf3ff"/>
  <rect x="34" y="28" width="252" height="184" rx="20" fill="#fdfefe" stroke="#c2d6f3" stroke-width="4"/>

  <!-- 물줄기 -->
  <rect x="152" y="56" width="16" height="24" fill="#38bdf8"/>
  <rect x="156" y="48" width="8" height="32" fill="#93c5fd"/>
  <rect x="136" y="48" width="16" height="8" fill="#38bdf8"/>
  <rect x="128" y="40" width="8" height="8" fill="#38bdf8"/>
  <rect x="120" y="44" width="8" height="8" fill="#93c5fd"/>
  <rect x="168" y="48" width="16" height="8" fill="#38bdf8"/>
  <rect x="184" y="40" width="8" height="8" fill="#38bdf8"/>
  <rect x="192" y="44" width="8" height="8" fill="#93c5fd"/>

  <!-- 꼬리 지느러미 -->
  <rect x="56" y="88" width="16" height="16" fill="#60a5fa"/>
  <rect x="56" y="96" width="16" height="8" fill="#3b82f6"/>
  <rect x="48" y="80" width="16" height="16" fill="#60a5fa"/>
  <rect x="48" y="80" width="8" height="8" fill="#93c5fd"/>
  <rect x="48" y="96" width="8" height="8" fill="#3b82f6"/>

  <!-- 고래 몸통 베이스 -->
  <rect x="80" y="96" width="160" height="56" fill="#60a5fa"/>
  <rect x="88" y="88" width="144" height="8" fill="#60a5fa"/>
  <rect x="96" y="80" width="128" height="8" fill="#60a5fa"/>

  <!-- 하이라이트 (등 & 왼쪽) -->
  <rect x="104" y="80" width="112" height="4" fill="#93c5fd"/>
  <rect x="96" y="84" width="8" height="4" fill="#93c5fd"/>
  <rect x="88" y="88" width="8" height="8" fill="#93c5fd"/>
  <rect x="80" y="96" width="8" height="16" fill="#93c5fd"/>

  <!-- 그림자 (우측 & 하단) -->
  <rect x="224" y="88" width="8" height="8" fill="#2563eb"/>
  <rect x="232" y="96" width="8" height="48" fill="#2563eb"/>
  <rect x="224" y="144" width="8" height="8" fill="#2563eb"/>
  <rect x="88" y="152" width="144" height="8" fill="#3b82f6"/>
  <rect x="96" y="160" width="128" height="8" fill="#3b82f6"/>
  <rect x="104" y="160" width="112" height="8" fill="#2563eb"/>

  <!-- 왼쪽 지느러미 -->
  <rect x="64" y="120" width="16" height="16" fill="#60a5fa"/>
  <rect x="64" y="128" width="16" height="8" fill="#3b82f6"/>
  <rect x="72" y="120" width="8" height="8" fill="#93c5fd"/>

  <!-- 오른쪽 지느러미 -->
  <rect x="240" y="120" width="16" height="16" fill="#3b82f6"/>
  <rect x="240" y="128" width="16" height="8" fill="#2563eb"/>

  <!-- 배 -->
  <rect x="112" y="128" width="96" height="24" fill="#f8fafc"/>
  <rect x="104" y="136" width="8" height="16" fill="#f8fafc"/>
  <rect x="208" y="136" width="8" height="16" fill="#f8fafc"/>
  <rect x="120" y="152" width="80" height="8" fill="#cbd5e1"/>

  <!-- 눈 -->
  <rect x="120" y="112" width="16" height="16" fill="#0f172a"/>
  <rect x="120" y="112" width="8" height="8" fill="#ffffff"/>
  <rect x="184" y="112" width="16" height="16" fill="#0f172a"/>
  <rect x="184" y="112" width="8" height="8" fill="#ffffff"/>

  <!-- 볼터치 -->
  <rect x="104" y="128" width="16" height="8" fill="#fda4af"/>
  <rect x="200" y="128" width="16" height="8" fill="#fda4af"/>

  <!-- 입 -->
  <rect x="144" y="136" width="32" height="8" fill="#0f172a"/>
  <rect x="152" y="128" width="16" height="8" fill="#f8fafc"/>
  <rect x="152" y="136" width="16" height="8" fill="#f43f5e"/>
</svg>
