<svg xmlns="http://www.w3.org/2000/svg" viewBox="0 0 320 240" shape-rendering="crispEdges">
  <defs>
    <linearGradient id="bg" x1="0" x2="1" y1="0" y2="1">
      <stop offset="0%" stop-color="#f7efdf" />
      <stop offset="100%" stop-color="#efe1ca" />
    </linearGradient>
  </defs>
  <rect width="320" height="240" fill="url(#bg)"/>
  <rect x="36" y="28" width="248" height="184" rx="20" fill="#f8f5ed" stroke="#d9c6aa" stroke-width="4"/>

  <rect x="58" y="68" width="28" height="26" fill="#f0b18d"/>
  <rect x="84" y="52" width="18" height="18" fill="#f0b18d"/>
  <rect x="96" y="40" width="18" height="18" fill="#f7d0a7"/>
  <rect x="114" y="32" width="32" height="18" fill="#ef9f74"/>
  <rect x="146" y="40" width="18" height="18" fill="#f7d0a7"/>
  <rect x="164" y="52" width="18" height="18" fill="#f0b18d"/>
  <rect x="182" y="68" width="28" height="26" fill="#f0b18d"/>

  <rect x="82" y="78" width="154" height="70" fill="#d78a67"/>
  <rect x="96" y="92" width="126" height="50" fill="#f2c2a1"/>
  <rect x="84" y="94" width="18" height="26" fill="#b9694c"/>
  <rect x="218" y="94" width="18" height="26" fill="#b9694c"/>

  <rect x="122" y="108" width="14" height="14" fill="#31261f"/>
  <rect x="182" y="108" width="14" height="14" fill="#31261f"/>
  <rect x="138" y="88" width="46" height="12" fill="#ef9f74"/>

  <rect x="96" y="144" width="36" height="22" fill="#cf7b58"/>
  <rect x="188" y="144" width="36" height="22" fill="#cf7b58"/>
  <rect x="116" y="152" width="88" height="18" fill="#8a4c39"/>

  <rect x="74" y="124" width="16" height="28" fill="#b9694c"/>
  <rect x="230" y="124" width="16" height="28" fill="#b9694c"/>
  <rect x="228" y="132" width="14" height="14" fill="#f7d0a7"/>
  <rect x="78" y="132" width="14" height="14" fill="#f7d0a7"/>

  <rect x="88" y="166" width="144" height="18" fill="#7e4a37"/>
  <rect x="104" y="184" width="112" height="10" fill="#5c3829"/>
</svg>
